# xmcd
#
# Track frame offsets:
# 150
# 15615
# 33475
# 47670
# 64245
# 86485
# 104813
# 125358
# 140345
# 166490
# 181573
# 198242
# 215580
# 228330
# 242690
# 260925
# 278435
#
# Disc length: 3930 seconds
#
#
# Revision: 3
# Processed by: cddbd v1.4PL0 Copyright (c) Steve Scherf et al.
# Submitted via: FreeRIP 2.35 
#
DISCID=ef0f5811
DTITLE=Vince Gill - Next Big Thing
DYEAR=2003
DGENRE=Country
TTITLE0=Next Big Thing
TTITLE1=She Never Makes Me Cry
TTITLE2=Don't Let Her Get Away
TTITLE3=Someday
TTITLE4=These Broken Hearts
TTITLE5=We Had It All
TTITLE6=Young Man's Town
TTITLE7=Real Mean Bottle
TTITLE8=Whippoorwill River
TTITLE9=The Sun's Gonna Shine On You
TTITLE10=From Where I Stand
TTITLE11=You Ain't Foolin' Nobody
TTITLE12=Old Time Fiddle
TTITLE13=Without You
TTITLE14=Two Hearts
TTITLE15=This Old Guitar And Me
TTITLE16=In These Last Few Days
EXTD=
EXTT0=
EXTT1=
EXTT2=
EXTT3=
EXTT4=
EXTT5=
EXTT6=
EXTT7=
EXTT8=
EXTT9=
EXTT10=
EXTT11=
EXTT12=
EXTT13=
EXTT14=
EXTT15=
EXTT16=
PLAYORDER=
